<svg xmlns="http://www.w3.org/2000/svg" enable-background="new 0 0 512 512" viewBox="0 0 512 512" id="office-documents">
  <g>
    <g>
      <g>
        <g>
          <path fill="#9cc0fd" d="M450.913,43.934v424.131c0,16.769-13.594,30.364-30.364,30.364H299.171
					c-16.769,0-30.364-13.594-30.364-30.364V43.934c0-16.769,13.594-30.364,30.364-30.364h121.378
					C437.318,13.57,450.913,27.165,450.913,43.934z"></path>
          <path fill="#fff" d="M299.17 98.914v157.934c0 5.59 4.531 10.121 10.121 10.121h101.134c5.59 0 10.121-4.531 10.121-10.121V98.914c0-5.59-4.531-10.121-10.121-10.121H309.292C303.702 88.793 299.17 93.324 299.17 98.914zM407.531 405.77c0 26.416-21.356 47.671-47.671 47.671-26.316 0-47.671-21.255-47.671-47.671 0-26.315 21.356-47.57 47.671-47.57C386.175 358.2 407.531 379.455 407.531 405.77z"></path>
          <path fill="#fff" d="M385.163,405.794c0,14.021-11.335,25.303-25.303,25.303c-13.968,0-25.303-11.282-25.303-25.303
					c0-13.968,11.335-25.25,25.303-25.25C373.828,380.544,385.163,391.826,385.163,405.794z"></path>
          <path fill="#9cc0fd" d="M243.193,43.934v424.131c0,16.769-13.594,30.364-30.364,30.364H91.451
					c-16.769,0-30.364-13.594-30.364-30.364V43.934c0-16.769,13.594-30.364,30.364-30.364h121.378
					C229.598,13.57,243.193,27.165,243.193,43.934z"></path>
          <path fill="#fff" d="M91.451 98.914v157.934c0 5.59 4.531 10.121 10.121 10.121h101.134c5.59 0 10.121-4.531 10.121-10.121V98.914c0-5.59-4.531-10.121-10.121-10.121H101.572C95.982 88.793 91.451 93.324 91.451 98.914zM199.811 405.77c0 26.416-21.356 47.671-47.671 47.671-26.316 0-47.671-21.255-47.671-47.671 0-26.315 21.356-47.57 47.671-47.57C178.455 358.2 199.811 379.455 199.811 405.77z"></path>
          <path fill="#fff" d="M177.443,405.794c0,14.021-11.335,25.303-25.303,25.303c-13.968,0-25.303-11.282-25.303-25.303
					c0-13.968,11.335-25.25,25.303-25.25C166.108,380.544,177.443,391.826,177.443,405.794z"></path>
          <path fill="#5c8ffc" d="M107.837 134.001h88.603c2.708 0 4.902-2.194 4.902-4.902 0-2.708-2.194-4.902-4.902-4.902h-88.603c-2.708 0-4.902 2.194-4.902 4.902C102.935 131.807 105.129 134.001 107.837 134.001zM107.837 166.51h88.603c2.708 0 4.902-2.194 4.902-4.902s-2.194-4.902-4.902-4.902h-88.603c-2.708 0-4.902 2.194-4.902 4.902S105.129 166.51 107.837 166.51zM107.837 199.017h88.603c2.708 0 4.902-2.194 4.902-4.902s-2.194-4.902-4.902-4.902h-88.603c-2.708 0-4.902 2.194-4.902 4.902S105.129 199.017 107.837 199.017zM107.837 231.526h53.677c2.708 0 4.902-2.194 4.902-4.902s-2.194-4.902-4.902-4.902h-53.677c-2.708 0-4.902 2.194-4.902 4.902S105.129 231.526 107.837 231.526zM315.558 134.001h88.601c2.708 0 4.902-2.194 4.902-4.902 0-2.708-2.194-4.902-4.902-4.902h-88.601c-2.708 0-4.902 2.194-4.902 4.902C310.656 131.807 312.851 134.001 315.558 134.001zM315.558 166.51h88.601c2.708 0 4.902-2.194 4.902-4.902s-2.194-4.902-4.902-4.902h-88.601c-2.708 0-4.902 2.194-4.902 4.902S312.851 166.51 315.558 166.51zM315.558 199.017h88.601c2.708 0 4.902-2.194 4.902-4.902s-2.194-4.902-4.902-4.902h-88.601c-2.708 0-4.902 2.194-4.902 4.902S312.851 199.017 315.558 199.017zM315.558 231.526h53.675c2.708 0 4.902-2.194 4.902-4.902s-2.194-4.902-4.902-4.902h-53.675c-2.708 0-4.902 2.194-4.902 4.902S312.851 231.526 315.558 231.526z"></path>
          <path fill="#5c8ffc" d="M299.171 503.332h121.378c19.446 0 35.266-15.819 35.266-35.266V43.934c0-19.446-15.819-35.266-35.266-35.266H299.171c-19.446 0-35.266 15.819-35.266 35.266v424.132C263.905 487.513 279.724 503.332 299.171 503.332zM273.709 43.934c0-14.04 11.422-25.462 25.462-25.462h121.378c14.04 0 25.462 11.422 25.462 25.462v424.132c0 14.04-11.422 25.462-25.462 25.462H299.171c-14.04 0-25.462-11.422-25.462-25.462V43.934zM91.451 503.332h121.378c19.446 0 35.266-15.819 35.266-35.266V43.934c0-19.446-15.819-35.266-35.266-35.266H91.451c-19.446 0-35.266 15.819-35.266 35.266v424.132C56.185 487.513 72.005 503.332 91.451 503.332zM65.989 43.934c0-14.04 11.422-25.462 25.462-25.462h121.378c14.04 0 25.462 11.422 25.462 25.462v424.132c0 14.04-11.422 25.462-25.462 25.462H91.451c-14.04 0-25.462-11.422-25.462-25.462V43.934z"></path>
          <path fill="#5c8ffc" d="M309.292 271.871h101.134c8.283 0 15.023-6.74 15.023-15.023V98.914c0-8.283-6.74-15.023-15.023-15.023H309.292c-8.283 0-15.023 6.74-15.023 15.023v157.933C294.269 265.13 301.009 271.871 309.292 271.871zM304.073 98.914c0-2.879 2.341-5.219 5.219-5.219h101.134c2.879 0 5.219 2.341 5.219 5.219v157.933c0 2.879-2.341 5.219-5.219 5.219H309.292c-2.879 0-5.219-2.341-5.219-5.219V98.914zM101.573 271.871h101.134c8.283 0 15.023-6.74 15.023-15.023V98.914c0-8.283-6.74-15.023-15.023-15.023H101.573c-8.283 0-15.023 6.74-15.023 15.023v157.933C86.549 265.13 93.29 271.871 101.573 271.871zM96.353 98.914c0-2.879 2.341-5.219 5.219-5.219h101.134c2.879 0 5.219 2.341 5.219 5.219v157.933c0 2.879-2.341 5.219-5.219 5.219H101.573c-2.879 0-5.219-2.341-5.219-5.219V98.914zM359.861 353.298c-28.99 0-52.574 23.539-52.574 52.472 0 28.99 23.584 52.574 52.574 52.574 28.989 0 52.573-23.584 52.573-52.574C412.433 376.837 388.849 353.298 359.861 353.298zM359.861 448.54c-23.584 0-42.77-19.186-42.77-42.77 0-23.527 19.186-42.668 42.77-42.668 23.582 0 42.769 19.142 42.769 42.668C402.629 429.354 383.443 448.54 359.861 448.54z"></path>
          <path fill="#5c8ffc" d="M359.861 375.642c-16.656 0-30.206 13.526-30.206 30.152 0 16.656 13.55 30.206 30.206 30.206 16.654 0 30.204-13.55 30.204-30.206C390.065 389.168 376.515 375.642 359.861 375.642zM359.861 426.196c-11.249 0-20.402-9.153-20.402-20.402 0-11.219 9.153-20.348 20.402-20.348s20.401 9.129 20.401 20.348C380.261 417.043 371.11 426.196 359.861 426.196zM152.141 353.298c-28.99 0-52.574 23.539-52.574 52.472 0 28.99 23.584 52.574 52.574 52.574 28.989 0 52.573-23.584 52.573-52.574C204.714 376.837 181.13 353.298 152.141 353.298zM152.141 448.54c-23.584 0-42.77-19.186-42.77-42.77 0-23.527 19.186-42.668 42.77-42.668 23.582 0 42.769 19.142 42.769 42.668C194.91 429.354 175.723 448.54 152.141 448.54z"></path>
          <path fill="#5c8ffc" d="M152.139,375.642c-16.654,0-30.204,13.526-30.204,30.152c0,16.656,13.55,30.206,30.204,30.206
					c16.656,0,30.206-13.55,30.206-30.206C182.345,389.168,168.795,375.642,152.139,375.642z M152.139,426.196
					c-11.249,0-20.401-9.153-20.401-20.402c0-11.219,9.151-20.348,20.401-20.348c11.249,0,20.402,9.129,20.402,20.348
					C172.542,417.043,163.389,426.196,152.139,426.196z"></path>
        </g>
        <path fill="#9cc0fd" d="M450.913,43.934v424.131c0,16.769-13.594,30.364-30.364,30.364H299.171
				c-16.769,0-30.364-13.594-30.364-30.364V43.934c0-16.769,13.594-30.364,30.364-30.364h121.378
				C437.318,13.57,450.913,27.165,450.913,43.934z"></path>
        <path fill="#fff" d="M299.17 98.914v157.934c0 5.59 4.531 10.121 10.121 10.121h101.134c5.59 0 10.121-4.531 10.121-10.121V98.914c0-5.59-4.531-10.121-10.121-10.121H309.292C303.702 88.793 299.17 93.324 299.17 98.914zM407.531 405.77c0 26.416-21.356 47.671-47.671 47.671-26.316 0-47.671-21.255-47.671-47.671 0-26.315 21.356-47.57 47.671-47.57C386.175 358.2 407.531 379.455 407.531 405.77z"></path>
        <path fill="#fff" d="M385.163,405.794c0,14.021-11.335,25.303-25.303,25.303c-13.968,0-25.303-11.282-25.303-25.303
				c0-13.968,11.335-25.25,25.303-25.25C373.828,380.544,385.163,391.826,385.163,405.794z"></path>
        <path fill="#9cc0fd" d="M243.193,43.934v424.131c0,16.769-13.594,30.364-30.364,30.364H91.451
				c-16.769,0-30.364-13.594-30.364-30.364V43.934c0-16.769,13.594-30.364,30.364-30.364h121.378
				C229.598,13.57,243.193,27.165,243.193,43.934z"></path>
        <path fill="#fff" d="M91.451 98.914v157.934c0 5.59 4.531 10.121 10.121 10.121h101.134c5.59 0 10.121-4.531 10.121-10.121V98.914c0-5.59-4.531-10.121-10.121-10.121H101.572C95.982 88.793 91.451 93.324 91.451 98.914zM199.811 405.77c0 26.416-21.356 47.671-47.671 47.671-26.316 0-47.671-21.255-47.671-47.671 0-26.315 21.356-47.57 47.671-47.57C178.455 358.2 199.811 379.455 199.811 405.77z"></path>
        <path fill="#fff" d="M177.443,405.794c0,14.021-11.335,25.303-25.303,25.303c-13.968,0-25.303-11.282-25.303-25.303
				c0-13.968,11.335-25.25,25.303-25.25C166.108,380.544,177.443,391.826,177.443,405.794z"></path>
        <path fill="#5c8ffc" d="M107.837 134.001h88.603c2.708 0 4.902-2.194 4.902-4.902 0-2.708-2.194-4.902-4.902-4.902h-88.603c-2.708 0-4.902 2.194-4.902 4.902C102.935 131.807 105.129 134.001 107.837 134.001zM107.837 166.51h88.603c2.708 0 4.902-2.194 4.902-4.902s-2.194-4.902-4.902-4.902h-88.603c-2.708 0-4.902 2.194-4.902 4.902S105.129 166.51 107.837 166.51zM107.837 199.017h88.603c2.708 0 4.902-2.194 4.902-4.902s-2.194-4.902-4.902-4.902h-88.603c-2.708 0-4.902 2.194-4.902 4.902S105.129 199.017 107.837 199.017zM107.837 231.526h53.677c2.708 0 4.902-2.194 4.902-4.902s-2.194-4.902-4.902-4.902h-53.677c-2.708 0-4.902 2.194-4.902 4.902S105.129 231.526 107.837 231.526zM315.558 134.001h88.601c2.708 0 4.902-2.194 4.902-4.902 0-2.708-2.194-4.902-4.902-4.902h-88.601c-2.708 0-4.902 2.194-4.902 4.902C310.656 131.807 312.851 134.001 315.558 134.001zM315.558 166.51h88.601c2.708 0 4.902-2.194 4.902-4.902s-2.194-4.902-4.902-4.902h-88.601c-2.708 0-4.902 2.194-4.902 4.902S312.851 166.51 315.558 166.51zM315.558 199.017h88.601c2.708 0 4.902-2.194 4.902-4.902s-2.194-4.902-4.902-4.902h-88.601c-2.708 0-4.902 2.194-4.902 4.902S312.851 199.017 315.558 199.017zM315.558 231.526h53.675c2.708 0 4.902-2.194 4.902-4.902s-2.194-4.902-4.902-4.902h-53.675c-2.708 0-4.902 2.194-4.902 4.902S312.851 231.526 315.558 231.526z"></path>
        <path fill="#5c8ffc" d="M299.171 503.332h121.378c19.446 0 35.266-15.819 35.266-35.266V43.934c0-19.446-15.819-35.266-35.266-35.266H299.171c-19.446 0-35.266 15.819-35.266 35.266v424.132C263.905 487.513 279.724 503.332 299.171 503.332zM273.709 43.934c0-14.04 11.422-25.462 25.462-25.462h121.378c14.04 0 25.462 11.422 25.462 25.462v424.132c0 14.04-11.422 25.462-25.462 25.462H299.171c-14.04 0-25.462-11.422-25.462-25.462V43.934zM91.451 503.332h121.378c19.446 0 35.266-15.819 35.266-35.266V43.934c0-19.446-15.819-35.266-35.266-35.266H91.451c-19.446 0-35.266 15.819-35.266 35.266v424.132C56.185 487.513 72.005 503.332 91.451 503.332zM65.989 43.934c0-14.04 11.422-25.462 25.462-25.462h121.378c14.04 0 25.462 11.422 25.462 25.462v424.132c0 14.04-11.422 25.462-25.462 25.462H91.451c-14.04 0-25.462-11.422-25.462-25.462V43.934z"></path>
        <path fill="#5c8ffc" d="M309.292 271.871h101.134c8.283 0 15.023-6.74 15.023-15.023V98.914c0-8.283-6.74-15.023-15.023-15.023H309.292c-8.283 0-15.023 6.74-15.023 15.023v157.933C294.269 265.13 301.009 271.871 309.292 271.871zM304.073 98.914c0-2.879 2.341-5.219 5.219-5.219h101.134c2.879 0 5.219 2.341 5.219 5.219v157.933c0 2.879-2.341 5.219-5.219 5.219H309.292c-2.879 0-5.219-2.341-5.219-5.219V98.914zM101.573 271.871h101.134c8.283 0 15.023-6.74 15.023-15.023V98.914c0-8.283-6.74-15.023-15.023-15.023H101.573c-8.283 0-15.023 6.74-15.023 15.023v157.933C86.549 265.13 93.29 271.871 101.573 271.871zM96.353 98.914c0-2.879 2.341-5.219 5.219-5.219h101.134c2.879 0 5.219 2.341 5.219 5.219v157.933c0 2.879-2.341 5.219-5.219 5.219H101.573c-2.879 0-5.219-2.341-5.219-5.219V98.914zM359.861 353.298c-28.99 0-52.574 23.539-52.574 52.472 0 28.99 23.584 52.574 52.574 52.574 28.989 0 52.573-23.584 52.573-52.574C412.433 376.837 388.849 353.298 359.861 353.298zM359.861 448.54c-23.584 0-42.77-19.186-42.77-42.77 0-23.527 19.186-42.668 42.77-42.668 23.582 0 42.769 19.142 42.769 42.668C402.629 429.354 383.443 448.54 359.861 448.54z"></path>
        <path fill="#5c8ffc" d="M359.861 375.642c-16.656 0-30.206 13.526-30.206 30.152 0 16.656 13.55 30.206 30.206 30.206 16.654 0 30.204-13.55 30.204-30.206C390.065 389.168 376.515 375.642 359.861 375.642zM359.861 426.196c-11.249 0-20.402-9.153-20.402-20.402 0-11.219 9.153-20.348 20.402-20.348s20.401 9.129 20.401 20.348C380.261 417.043 371.11 426.196 359.861 426.196zM152.141 353.298c-28.99 0-52.574 23.539-52.574 52.472 0 28.99 23.584 52.574 52.574 52.574 28.989 0 52.573-23.584 52.573-52.574C204.714 376.837 181.13 353.298 152.141 353.298zM152.141 448.54c-23.584 0-42.77-19.186-42.77-42.77 0-23.527 19.186-42.668 42.77-42.668 23.582 0 42.769 19.142 42.769 42.668C194.91 429.354 175.723 448.54 152.141 448.54z"></path>
        <path fill="#5c8ffc" d="M152.139,375.642c-16.654,0-30.204,13.526-30.204,30.152c0,16.656,13.55,30.206,30.204,30.206
				c16.656,0,30.206-13.55,30.206-30.206C182.345,389.168,168.795,375.642,152.139,375.642z M152.139,426.196
				c-11.249,0-20.401-9.153-20.401-20.402c0-11.219,9.151-20.348,20.401-20.348c11.249,0,20.402,9.129,20.402,20.348
				C172.542,417.043,163.389,426.196,152.139,426.196z"></path>
      </g>
    </g>
  </g>
</svg>
